<svg width="744" height="195" viewBox="0 0 744 195" fill="none" xmlns="http://www.w3.org/2000/svg">
<path d="M1.44 17.8093V5.02933H7.002C7.578 5.02933 8.106 5.14933 8.586 5.38933C9.066 5.62933 9.48 5.94733 9.828 6.34333C10.188 6.73933 10.464 7.18333 10.656 7.67533C10.86 8.16733 10.962 8.67133 10.962 9.18733C10.962 9.75133 10.86 10.2913 10.656 10.8073C10.452 11.3233 10.158 11.7673 9.774 12.1393C9.402 12.5113 8.964 12.7813 8.46 12.9493L11.466 17.8093H9.198L6.426 13.3633H3.456V17.8093H1.44ZM3.456 11.5813H6.984C7.356 11.5813 7.686 11.4733 7.974 11.2573C8.262 11.0413 8.49 10.7533 8.658 10.3933C8.826 10.0213 8.91 9.61933 8.91 9.18733C8.91 8.74333 8.814 8.34733 8.622 7.99933C8.43 7.63933 8.178 7.35133 7.866 7.13533C7.566 6.91933 7.236 6.81133 6.876 6.81133H3.456V11.5813ZM17.0196 17.9893C16.2756 17.9893 15.6096 17.8633 15.0216 17.6113C14.4336 17.3473 13.9236 16.9873 13.4916 16.5313C13.0716 16.0753 12.7476 15.5593 12.5196 14.9833C12.2916 14.3953 12.1776 13.7713 12.1776 13.1113C12.1776 12.4513 12.2916 11.8273 12.5196 11.2393C12.7476 10.6513 13.0716 10.1353 13.4916 9.69133C13.9236 9.23533 14.4336 8.88133 15.0216 8.62933C15.6216 8.36533 16.2876 8.23333 17.0196 8.23333C17.7516 8.23333 18.4116 8.36533 18.9996 8.62933C19.5996 8.88133 20.1096 9.23533 20.5296 9.69133C20.9616 10.1353 21.2916 10.6513 21.5196 11.2393C21.7476 11.8273 21.8616 12.4513 21.8616 13.1113C21.8616 13.7713 21.7476 14.3953 21.5196 14.9833C21.2916 15.5593 20.9616 16.0753 20.5296 16.5313C20.1096 16.9873 19.5996 17.3473 18.9996 17.6113C18.4116 17.8633 17.7516 17.9893 17.0196 17.9893ZM14.2116 13.1293C14.2116 13.7293 14.3376 14.2693 14.5896 14.7493C14.8416 15.2293 15.1776 15.6073 15.5976 15.8833C16.0176 16.1593 16.4916 16.2973 17.0196 16.2973C17.5356 16.2973 18.0036 16.1593 18.4236 15.8833C18.8556 15.5953 19.1976 15.2113 19.4496 14.7313C19.7016 14.2393 19.8276 13.6993 19.8276 13.1113C19.8276 12.5113 19.7016 11.9713 19.4496 11.4913C19.1976 11.0113 18.8556 10.6333 18.4236 10.3573C18.0036 10.0693 17.5356 9.92533 17.0196 9.92533C16.4916 9.92533 16.0176 10.0693 15.5976 10.3573C15.1776 10.6453 14.8416 11.0293 14.5896 11.5093C14.3376 11.9773 14.2116 12.5173 14.2116 13.1293ZM23.5277 14.1553V8.39533H25.5077V13.7593C25.5077 14.5993 25.6577 15.2353 25.9577 15.6673C26.2697 16.0873 26.7197 16.2973 27.3077 16.2973C27.6797 16.2973 28.0397 16.2193 28.3877 16.0633C28.7477 15.9073 29.0717 15.6793 29.3597 15.3793C29.6597 15.0673 29.8997 14.6953 30.0797 14.2633V8.39533H32.0597V15.5773C32.0597 15.8053 32.1017 15.9673 32.1857 16.0633C32.2697 16.1593 32.4077 16.2133 32.5997 16.2253V17.8093C32.3957 17.8453 32.2277 17.8693 32.0957 17.8813C31.9637 17.8933 31.8377 17.8993 31.7177 17.8993C31.3577 17.8993 31.0577 17.8033 30.8177 17.6113C30.5777 17.4073 30.4397 17.1493 30.4037 16.8373L30.3677 15.9013C29.9477 16.5853 29.4017 17.1073 28.7297 17.4673C28.0577 17.8153 27.3197 17.9893 26.5157 17.9893C25.5317 17.9893 24.7877 17.6653 24.2837 17.0173C23.7797 16.3693 23.5277 15.4153 23.5277 14.1553ZM39.8069 17.3233C39.6389 17.4073 39.4289 17.4973 39.1769 17.5933C38.9249 17.6893 38.6369 17.7733 38.3129 17.8453C38.0009 17.9173 37.6769 17.9533 37.3409 17.9533C36.9329 17.9533 36.5549 17.8813 36.2069 17.7373C35.8589 17.5933 35.5769 17.3653 35.3609 17.0533C35.1569 16.7293 35.0549 16.3153 35.0549 15.8113V9.92533H33.8129V8.39533H35.0549V5.29933H37.0349V8.39533H39.0869V9.92533H37.0349V15.1813C37.0589 15.5053 37.1609 15.7453 37.3409 15.9013C37.5329 16.0573 37.7669 16.1353 38.0429 16.1353C38.3189 16.1353 38.5829 16.0873 38.8349 15.9913C39.0869 15.8953 39.2729 15.8173 39.3929 15.7573L39.8069 17.3233ZM45.3212 17.9893C44.5892 17.9893 43.9232 17.8633 43.3232 17.6113C42.7352 17.3473 42.2252 16.9933 41.7932 16.5493C41.3612 16.0933 41.0252 15.5773 40.7852 15.0013C40.5572 14.4133 40.4432 13.7893 40.4432 13.1293C40.4432 12.2413 40.6472 11.4313 41.0552 10.6993C41.4632 9.95533 42.0332 9.36133 42.7652 8.91733C43.4972 8.46133 44.3552 8.23333 45.3392 8.23333C46.3232 8.23333 47.1692 8.46133 47.8772 8.91733C48.5972 9.36133 49.1552 9.94933 49.5512 10.6813C49.9472 11.4133 50.1452 12.1993 50.1452 13.0393C50.1452 13.1833 50.1392 13.3213 50.1272 13.4533C50.1152 13.5733 50.1032 13.6753 50.0912 13.7593H42.5492C42.5852 14.3113 42.7352 14.7973 42.9992 15.2173C43.2752 15.6253 43.6232 15.9493 44.0432 16.1893C44.4632 16.4173 44.9132 16.5313 45.3932 16.5313C45.9212 16.5313 46.4192 16.3993 46.8872 16.1353C47.3672 15.8713 47.6912 15.5233 47.8592 15.0913L49.5512 15.5773C49.3472 16.0333 49.0352 16.4473 48.6152 16.8193C48.2072 17.1793 47.7212 17.4673 47.1572 17.6833C46.5932 17.8873 45.9812 17.9893 45.3212 17.9893ZM42.4952 12.4453H48.1832C48.1472 11.9053 47.9912 11.4313 47.7152 11.0233C47.4512 10.6033 47.1092 10.2793 46.6892 10.0513C46.2812 9.81133 45.8252 9.69133 45.3212 9.69133C44.8292 9.69133 44.3732 9.81133 43.9532 10.0513C43.5452 10.2793 43.2092 10.6033 42.9452 11.0233C42.6812 11.4313 42.5312 11.9053 42.4952 12.4453Z" fill="#030712" fill-opacity="0.6"/>
<path d="M620.44 17.8093V5.02933H624.976C626.356 5.02933 627.508 5.31733 628.432 5.89333C629.356 6.45733 630.046 7.22533 630.502 8.19733C630.97 9.15733 631.204 10.2253 631.204 11.4013C631.204 12.6973 630.946 13.8253 630.43 14.7853C629.926 15.7453 629.206 16.4893 628.27 17.0173C627.334 17.5453 626.236 17.8093 624.976 17.8093H620.44ZM629.152 11.4013C629.152 10.5013 628.984 9.70933 628.648 9.02533C628.324 8.32933 627.85 7.78933 627.226 7.40533C626.614 7.00933 625.864 6.81133 624.976 6.81133H622.456V16.0273H624.976C625.876 16.0273 626.632 15.8233 627.244 15.4153C627.868 15.0073 628.342 14.4553 628.666 13.7593C628.99 13.0633 629.152 12.2773 629.152 11.4013ZM641.515 17.8093H639.535V12.5353C639.535 11.6833 639.379 11.0473 639.067 10.6273C638.755 10.2073 638.317 9.99733 637.753 9.99733C637.405 9.99733 637.045 10.0933 636.673 10.2853C636.301 10.4773 635.971 10.7413 635.683 11.0773C635.395 11.4013 635.185 11.7793 635.053 12.2113V17.8093H633.073V4.66933H635.053V10.2853C635.413 9.64933 635.905 9.15133 636.529 8.79133C637.153 8.41933 637.825 8.23333 638.545 8.23333C639.133 8.23333 639.619 8.33533 640.003 8.53933C640.387 8.74333 640.687 9.02533 640.903 9.38533C641.131 9.73333 641.287 10.1413 641.371 10.6093C641.467 11.0653 641.515 11.5513 641.515 12.0673V17.8093ZM643.129 15.0553C643.129 14.4553 643.297 13.9333 643.633 13.4893C643.981 13.0333 644.455 12.6853 645.055 12.4453C645.655 12.1933 646.351 12.0673 647.143 12.0673C647.563 12.0673 647.989 12.0973 648.421 12.1573C648.865 12.2173 649.255 12.3133 649.591 12.4453V11.8513C649.591 11.1913 649.393 10.6753 648.997 10.3033C648.601 9.93133 648.031 9.74533 647.287 9.74533C646.759 9.74533 646.261 9.84133 645.793 10.0333C645.325 10.2133 644.827 10.4713 644.299 10.8073L643.633 9.47533C644.257 9.05533 644.881 8.74333 645.505 8.53933C646.141 8.33533 646.807 8.23333 647.503 8.23333C648.763 8.23333 649.753 8.56933 650.473 9.24133C651.205 9.90133 651.571 10.8433 651.571 12.0673V15.5773C651.571 15.8053 651.607 15.9673 651.679 16.0633C651.763 16.1593 651.901 16.2133 652.093 16.2253V17.8093C651.913 17.8453 651.751 17.8693 651.607 17.8813C651.463 17.8933 651.343 17.8993 651.247 17.8993C650.827 17.8993 650.509 17.7973 650.293 17.5933C650.077 17.3893 649.951 17.1493 649.915 16.8733L649.861 16.3333C649.453 16.8613 648.931 17.2693 648.295 17.5573C647.659 17.8453 647.017 17.9893 646.369 17.9893C645.745 17.9893 645.187 17.8633 644.695 17.6113C644.203 17.3473 643.819 16.9933 643.543 16.5493C643.267 16.1053 643.129 15.6073 643.129 15.0553ZM649.123 15.6313C649.267 15.4753 649.381 15.3193 649.465 15.1633C649.549 15.0073 649.591 14.8693 649.591 14.7493V13.6693C649.255 13.5373 648.901 13.4413 648.529 13.3813C648.157 13.3093 647.791 13.2733 647.431 13.2733C646.711 13.2733 646.123 13.4173 645.667 13.7053C645.223 13.9933 645.001 14.3893 645.001 14.8933C645.001 15.1693 645.073 15.4333 645.217 15.6853C645.373 15.9373 645.589 16.1413 645.865 16.2973C646.153 16.4533 646.507 16.5313 646.927 16.5313C647.359 16.5313 647.773 16.4473 648.169 16.2793C648.565 16.1113 648.883 15.8953 649.123 15.6313ZM660.525 17.8093L657.501 13.4713L655.953 14.9473V17.8093H653.973V4.66933H655.953V12.9493L660.309 8.41333H662.433L658.779 12.3553L662.631 17.8093H660.525ZM663.115 15.0553C663.115 14.4553 663.283 13.9333 663.619 13.4893C663.967 13.0333 664.441 12.6853 665.041 12.4453C665.641 12.1933 666.337 12.0673 667.129 12.0673C667.549 12.0673 667.975 12.0973 668.407 12.1573C668.851 12.2173 669.241 12.3133 669.577 12.4453V11.8513C669.577 11.1913 669.379 10.6753 668.983 10.3033C668.587 9.93133 668.017 9.74533 667.273 9.74533C666.745 9.74533 666.247 9.84133 665.779 10.0333C665.311 10.2133 664.813 10.4713 664.285 10.8073L663.619 9.47533C664.243 9.05533 664.867 8.74333 665.491 8.53933C666.127 8.33533 666.793 8.23333 667.489 8.23333C668.749 8.23333 669.739 8.56933 670.459 9.24133C671.191 9.90133 671.557 10.8433 671.557 12.0673V15.5773C671.557 15.8053 671.593 15.9673 671.665 16.0633C671.749 16.1593 671.887 16.2133 672.079 16.2253V17.8093C671.899 17.8453 671.737 17.8693 671.593 17.8813C671.449 17.8933 671.329 17.8993 671.233 17.8993C670.813 17.8993 670.495 17.7973 670.279 17.5933C670.063 17.3893 669.937 17.1493 669.901 16.8733L669.847 16.3333C669.439 16.8613 668.917 17.2693 668.281 17.5573C667.645 17.8453 667.003 17.9893 666.355 17.9893C665.731 17.9893 665.173 17.8633 664.681 17.6113C664.189 17.3473 663.805 16.9933 663.529 16.5493C663.253 16.1053 663.115 15.6073 663.115 15.0553ZM669.109 15.6313C669.253 15.4753 669.367 15.3193 669.451 15.1633C669.535 15.0073 669.577 14.8693 669.577 14.7493V13.6693C669.241 13.5373 668.887 13.4413 668.515 13.3813C668.143 13.3093 667.777 13.2733 667.417 13.2733C666.697 13.2733 666.109 13.4173 665.653 13.7053C665.209 13.9933 664.987 14.3893 664.987 14.8933C664.987 15.1693 665.059 15.4333 665.203 15.6853C665.359 15.9373 665.575 16.1413 665.851 16.2973C666.139 16.4533 666.493 16.5313 666.913 16.5313C667.345 16.5313 667.759 16.4473 668.155 16.2793C668.551 16.1113 668.869 15.8953 669.109 15.6313ZM678.317 13.7773V11.9953H683.699V13.7773H678.317ZM698.242 8.03533C698.122 7.90333 697.948 7.76533 697.72 7.62133C697.492 7.46533 697.222 7.32133 696.91 7.18933C696.598 7.05733 696.262 6.94933 695.902 6.86533C695.542 6.78133 695.17 6.73933 694.786 6.73933C693.946 6.73933 693.322 6.89533 692.914 7.20733C692.506 7.51933 692.302 7.95133 692.302 8.50333C692.302 8.91133 692.416 9.23533 692.644 9.47533C692.872 9.70333 693.22 9.89533 693.688 10.0513C694.156 10.2073 694.744 10.3753 695.452 10.5553C696.316 10.7593 697.066 11.0053 697.702 11.2933C698.338 11.5693 698.824 11.9413 699.16 12.4093C699.496 12.8773 699.664 13.4953 699.664 14.2633C699.664 14.9113 699.544 15.4693 699.304 15.9373C699.064 16.4053 698.728 16.7893 698.296 17.0893C697.864 17.3773 697.366 17.5933 696.802 17.7373C696.238 17.8693 695.632 17.9353 694.984 17.9353C694.348 17.9353 693.712 17.8693 693.076 17.7373C692.452 17.6053 691.852 17.4133 691.276 17.1613C690.712 16.8973 690.19 16.5793 689.71 16.2073L690.628 14.4793C690.784 14.6353 691.006 14.8093 691.294 15.0013C691.594 15.1813 691.936 15.3553 692.32 15.5233C692.716 15.6913 693.142 15.8353 693.598 15.9553C694.066 16.0633 694.54 16.1173 695.02 16.1173C695.824 16.1173 696.436 15.9793 696.856 15.7033C697.288 15.4153 697.504 15.0073 697.504 14.4793C697.504 14.0473 697.366 13.7053 697.09 13.4533C696.814 13.1893 696.412 12.9673 695.884 12.7873C695.356 12.6073 694.726 12.4273 693.994 12.2473C693.154 12.0193 692.452 11.7733 691.888 11.5093C691.324 11.2333 690.898 10.8853 690.61 10.4653C690.334 10.0333 690.196 9.48733 690.196 8.82733C690.196 7.98733 690.4 7.27933 690.808 6.70333C691.216 6.11533 691.768 5.67733 692.464 5.38933C693.172 5.08933 693.964 4.93933 694.84 4.93933C695.416 4.93933 695.962 5.00533 696.478 5.13733C696.994 5.25733 697.474 5.42533 697.918 5.64133C698.374 5.85733 698.788 6.10333 699.16 6.37933L698.242 8.03533ZM701.459 20.0233C701.639 20.0473 701.813 20.0713 701.981 20.0953C702.161 20.1313 702.305 20.1493 702.413 20.1493C702.617 20.1493 702.791 20.0833 702.935 19.9513C703.091 19.8313 703.247 19.6033 703.403 19.2673C703.559 18.9313 703.751 18.4453 703.979 17.8093L700.109 8.39533H702.179L705.059 15.7933L707.615 8.39533H709.523L705.257 19.9873C705.125 20.3353 704.933 20.6533 704.681 20.9413C704.429 21.2413 704.117 21.4753 703.745 21.6433C703.373 21.8113 702.935 21.8953 702.431 21.8953C702.287 21.8953 702.137 21.8833 701.981 21.8593C701.825 21.8353 701.651 21.7993 701.459 21.7513V20.0233ZM710.997 4.66933H712.977V15.0913C712.977 15.5713 713.049 15.8773 713.193 16.0093C713.337 16.1413 713.517 16.2073 713.733 16.2073C713.973 16.2073 714.195 16.1833 714.399 16.1353C714.615 16.0873 714.801 16.0273 714.957 15.9553L715.245 17.5213C714.957 17.6413 714.615 17.7433 714.219 17.8273C713.823 17.9113 713.469 17.9533 713.157 17.9533C712.485 17.9533 711.957 17.7673 711.573 17.3953C711.189 17.0113 710.997 16.4833 710.997 15.8113V4.66933ZM724.835 17.8093H722.855V12.5353C722.855 11.6833 722.699 11.0473 722.387 10.6273C722.075 10.2073 721.637 9.99733 721.073 9.99733C720.725 9.99733 720.365 10.0933 719.993 10.2853C719.621 10.4773 719.291 10.7413 719.003 11.0773C718.715 11.4013 718.505 11.7793 718.373 12.2113V17.8093H716.393V4.66933H718.373V10.2853C718.733 9.64933 719.225 9.15133 719.849 8.79133C720.473 8.41933 721.145 8.23333 721.865 8.23333C722.453 8.23333 722.939 8.33533 723.323 8.53933C723.707 8.74333 724.007 9.02533 724.223 9.38533C724.451 9.73333 724.607 10.1413 724.691 10.6093C724.787 11.0653 724.835 11.5513 724.835 12.0673V17.8093ZM731.399 17.9893C730.667 17.9893 730.001 17.8633 729.401 17.6113C728.813 17.3473 728.303 16.9933 727.871 16.5493C727.439 16.0933 727.103 15.5773 726.863 15.0013C726.635 14.4133 726.521 13.7893 726.521 13.1293C726.521 12.2413 726.725 11.4313 727.133 10.6993C727.541 9.95533 728.111 9.36133 728.843 8.91733C729.575 8.46133 730.433 8.23333 731.417 8.23333C732.401 8.23333 733.247 8.46133 733.955 8.91733C734.675 9.36133 735.233 9.94933 735.629 10.6813C736.025 11.4133 736.223 12.1993 736.223 13.0393C736.223 13.1833 736.217 13.3213 736.205 13.4533C736.193 13.5733 736.181 13.6753 736.169 13.7593H728.627C728.663 14.3113 728.813 14.7973 729.077 15.2173C729.353 15.6253 729.701 15.9493 730.121 16.1893C730.541 16.4173 730.991 16.5313 731.471 16.5313C731.999 16.5313 732.497 16.3993 732.965 16.1353C733.445 15.8713 733.769 15.5233 733.937 15.0913L735.629 15.5773C735.425 16.0333 735.113 16.4473 734.693 16.8193C734.285 17.1793 733.799 17.4673 733.235 17.6833C732.671 17.8873 732.059 17.9893 731.399 17.9893ZM728.573 12.4453H734.261C734.225 11.9053 734.069 11.4313 733.793 11.0233C733.529 10.6033 733.187 10.2793 732.767 10.0513C732.359 9.81133 731.903 9.69133 731.399 9.69133C730.907 9.69133 730.451 9.81133 730.031 10.0513C729.623 10.2793 729.287 10.6033 729.023 11.0233C728.759 11.4313 728.609 11.9053 728.573 12.4453ZM742.989 17.3233C742.821 17.4073 742.611 17.4973 742.359 17.5933C742.107 17.6893 741.819 17.7733 741.495 17.8453C741.183 17.9173 740.859 17.9533 740.523 17.9533C740.115 17.9533 739.737 17.8813 739.389 17.7373C739.041 17.5933 738.759 17.3653 738.543 17.0533C738.339 16.7293 738.237 16.3153 738.237 15.8113V9.92533H736.995V8.39533H738.237V5.29933H740.217V8.39533H742.269V9.92533H740.217V15.1813C740.241 15.5053 740.343 15.7453 740.523 15.9013C740.715 16.0573 740.949 16.1353 741.225 16.1353C741.501 16.1353 741.765 16.0873 742.017 15.9913C742.269 15.8953 742.455 15.8173 742.575 15.7573L742.989 17.3233Z" fill="#030712"/>
<path d="M1.44 86.8093V74.0293H5.976C7.356 74.0293 8.508 74.3173 9.432 74.8933C10.356 75.4573 11.046 76.2253 11.502 77.1973C11.97 78.1573 12.204 79.2253 12.204 80.4013C12.204 81.6973 11.946 82.8253 11.43 83.7853C10.926 84.7453 10.206 85.4893 9.27 86.0173C8.334 86.5453 7.236 86.8093 5.976 86.8093H1.44ZM10.152 80.4013C10.152 79.5013 9.984 78.7093 9.648 78.0253C9.324 77.3293 8.85 76.7893 8.226 76.4053C7.614 76.0093 6.864 75.8113 5.976 75.8113H3.456V85.0273H5.976C6.876 85.0273 7.632 84.8233 8.244 84.4153C8.868 84.0073 9.342 83.4553 9.666 82.7593C9.99 82.0633 10.152 81.2773 10.152 80.4013ZM18.3388 86.9893C17.6068 86.9893 16.9408 86.8633 16.3408 86.6113C15.7528 86.3473 15.2428 85.9933 14.8108 85.5493C14.3788 85.0933 14.0428 84.5773 13.8028 84.0013C13.5748 83.4133 13.4608 82.7893 13.4608 82.1293C13.4608 81.2413 13.6648 80.4313 14.0728 79.6993C14.4808 78.9553 15.0508 78.3613 15.7828 77.9173C16.5148 77.4613 17.3728 77.2333 18.3568 77.2333C19.3408 77.2333 20.1868 77.4613 20.8948 77.9173C21.6148 78.3613 22.1728 78.9493 22.5688 79.6813C22.9648 80.4133 23.1628 81.1993 23.1628 82.0393C23.1628 82.1833 23.1568 82.3213 23.1448 82.4533C23.1328 82.5733 23.1208 82.6753 23.1088 82.7593H15.5668C15.6028 83.3113 15.7528 83.7973 16.0168 84.2173C16.2928 84.6253 16.6408 84.9493 17.0608 85.1893C17.4808 85.4173 17.9308 85.5313 18.4108 85.5313C18.9388 85.5313 19.4368 85.3993 19.9048 85.1353C20.3848 84.8713 20.7088 84.5233 20.8768 84.0913L22.5688 84.5773C22.3648 85.0333 22.0528 85.4473 21.6328 85.8193C21.2248 86.1793 20.7388 86.4673 20.1748 86.6833C19.6108 86.8873 18.9988 86.9893 18.3388 86.9893ZM15.5128 81.4453H21.2008C21.1648 80.9053 21.0088 80.4313 20.7328 80.0233C20.4688 79.6033 20.1268 79.2793 19.7068 79.0513C19.2988 78.8113 18.8428 78.6913 18.3388 78.6913C17.8468 78.6913 17.3908 78.8113 16.9708 79.0513C16.5628 79.2793 16.2268 79.6033 15.9628 80.0233C15.6988 80.4313 15.5488 80.9053 15.5128 81.4453ZM30.1238 86.9893C29.3678 86.9893 28.7018 86.8093 28.1258 86.4493C27.5498 86.0893 27.0938 85.6213 26.7578 85.0453V90.6433H24.7778V77.3953H26.5238V79.0873C26.8838 78.5233 27.3518 78.0733 27.9278 77.7373C28.5038 77.4013 29.1458 77.2333 29.8538 77.2333C30.5018 77.2333 31.0958 77.3653 31.6358 77.6293C32.1758 77.8813 32.6438 78.2353 33.0398 78.6913C33.4358 79.1473 33.7418 79.6693 33.9578 80.2573C34.1858 80.8333 34.2998 81.4453 34.2998 82.0933C34.2998 82.9933 34.1198 83.8153 33.7598 84.5593C33.4118 85.3033 32.9198 85.8973 32.2838 86.3413C31.6598 86.7733 30.9398 86.9893 30.1238 86.9893ZM29.4758 85.2973C29.8958 85.2973 30.2738 85.2073 30.6098 85.0273C30.9578 84.8473 31.2518 84.6073 31.4918 84.3073C31.7438 84.0073 31.9358 83.6653 32.0678 83.2813C32.1998 82.8973 32.2658 82.5013 32.2658 82.0933C32.2658 81.6613 32.1938 81.2533 32.0498 80.8693C31.9058 80.4853 31.6958 80.1493 31.4198 79.8613C31.1558 79.5733 30.8438 79.3453 30.4838 79.1773C30.1358 79.0093 29.7518 78.9253 29.3318 78.9253C29.0798 78.9253 28.8158 78.9733 28.5398 79.0693C28.2638 79.1653 28.0058 79.2973 27.7658 79.4653C27.5258 79.6333 27.3158 79.8313 27.1358 80.0593C26.9558 80.2873 26.8298 80.5273 26.7578 80.7793V83.2453C26.9258 83.6293 27.1478 83.9773 27.4238 84.2893C27.6998 84.5893 28.0178 84.8353 28.3778 85.0273C28.7378 85.2073 29.1038 85.2973 29.4758 85.2973ZM35.3966 84.0553C35.3966 83.4553 35.5646 82.9333 35.9006 82.4893C36.2486 82.0333 36.7226 81.6853 37.3226 81.4453C37.9226 81.1933 38.6186 81.0673 39.4106 81.0673C39.8306 81.0673 40.2566 81.0973 40.6886 81.1573C41.1326 81.2173 41.5226 81.3133 41.8586 81.4453V80.8513C41.8586 80.1913 41.6606 79.6753 41.2646 79.3033C40.8686 78.9313 40.2986 78.7453 39.5546 78.7453C39.0266 78.7453 38.5286 78.8413 38.0606 79.0333C37.5926 79.2133 37.0946 79.4713 36.5666 79.8073L35.9006 78.4753C36.5246 78.0553 37.1486 77.7433 37.7726 77.5393C38.4086 77.3353 39.0746 77.2333 39.7706 77.2333C41.0306 77.2333 42.0206 77.5693 42.7406 78.2413C43.4726 78.9013 43.8386 79.8433 43.8386 81.0673V84.5773C43.8386 84.8053 43.8746 84.9673 43.9466 85.0633C44.0306 85.1593 44.1686 85.2133 44.3606 85.2253V86.8093C44.1806 86.8453 44.0186 86.8693 43.8746 86.8813C43.7306 86.8933 43.6106 86.8993 43.5146 86.8993C43.0946 86.8993 42.7766 86.7973 42.5606 86.5933C42.3446 86.3893 42.2186 86.1493 42.1826 85.8733L42.1286 85.3333C41.7206 85.8613 41.1986 86.2693 40.5626 86.5573C39.9266 86.8453 39.2846 86.9893 38.6366 86.9893C38.0126 86.9893 37.4546 86.8633 36.9626 86.6113C36.4706 86.3473 36.0866 85.9933 35.8106 85.5493C35.5346 85.1053 35.3966 84.6073 35.3966 84.0553ZM41.3906 84.6313C41.5346 84.4753 41.6486 84.3193 41.7326 84.1633C41.8166 84.0073 41.8586 83.8693 41.8586 83.7493V82.6693C41.5226 82.5373 41.1686 82.4413 40.7966 82.3813C40.4246 82.3093 40.0586 82.2733 39.6986 82.2733C38.9786 82.2733 38.3906 82.4173 37.9346 82.7053C37.4906 82.9933 37.2686 83.3893 37.2686 83.8933C37.2686 84.1693 37.3406 84.4333 37.4846 84.6853C37.6406 84.9373 37.8566 85.1413 38.1326 85.2973C38.4206 85.4533 38.7746 85.5313 39.1946 85.5313C39.6266 85.5313 40.0406 85.4473 40.4366 85.2793C40.8326 85.1113 41.1506 84.8953 41.3906 84.6313ZM51.5327 79.1053C50.7647 79.1173 50.0807 79.2913 49.4807 79.6273C48.8927 79.9633 48.4727 80.4373 48.2207 81.0493V86.8093H46.2407V77.3953H48.0767V79.5013C48.4007 78.8533 48.8267 78.3373 49.3547 77.9533C49.8827 77.5573 50.4407 77.3413 51.0287 77.3053C51.1487 77.3053 51.2447 77.3053 51.3167 77.3053C51.4007 77.3053 51.4727 77.3113 51.5327 77.3233V79.1053ZM58.2112 86.3233C58.0432 86.4073 57.8332 86.4973 57.5812 86.5933C57.3292 86.6893 57.0412 86.7733 56.7172 86.8453C56.4052 86.9173 56.0812 86.9533 55.7452 86.9533C55.3372 86.9533 54.9592 86.8813 54.6112 86.7373C54.2632 86.5933 53.9812 86.3653 53.7652 86.0533C53.5612 85.7293 53.4592 85.3153 53.4592 84.8113V78.9253H52.2172V77.3953H53.4592V74.2993H55.4392V77.3953H57.4912V78.9253H55.4392V84.1813C55.4632 84.5053 55.5652 84.7453 55.7452 84.9013C55.9372 85.0573 56.1712 85.1353 56.4472 85.1353C56.7232 85.1353 56.9872 85.0873 57.2392 84.9913C57.4912 84.8953 57.6772 84.8173 57.7972 84.7573L58.2112 86.3233ZM59.4925 83.1553V77.3953H61.4725V82.7593C61.4725 83.5993 61.6225 84.2353 61.9225 84.6673C62.2345 85.0873 62.6845 85.2973 63.2725 85.2973C63.6445 85.2973 64.0045 85.2193 64.3525 85.0633C64.7125 84.9073 65.0365 84.6793 65.3245 84.3793C65.6245 84.0673 65.8645 83.6953 66.0445 83.2633V77.3953H68.0245V84.5773C68.0245 84.8053 68.0665 84.9673 68.1505 85.0633C68.2345 85.1593 68.3725 85.2133 68.5645 85.2253V86.8093C68.3605 86.8453 68.1925 86.8693 68.0605 86.8813C67.9285 86.8933 67.8025 86.8993 67.6825 86.8993C67.3225 86.8993 67.0225 86.8033 66.7825 86.6113C66.5425 86.4073 66.4045 86.1493 66.3685 85.8373L66.3325 84.9013C65.9125 85.5853 65.3665 86.1073 64.6945 86.4673C64.0225 86.8153 63.2845 86.9893 62.4805 86.9893C61.4965 86.9893 60.7525 86.6653 60.2485 86.0173C59.7445 85.3693 59.4925 84.4153 59.4925 83.1553ZM75.8433 79.1053C75.0753 79.1173 74.3913 79.2913 73.7913 79.6273C73.2033 79.9633 72.7833 80.4373 72.5313 81.0493V86.8093H70.5513V77.3953H72.3873V79.5013C72.7113 78.8533 73.1373 78.3373 73.6653 77.9533C74.1933 77.5573 74.7513 77.3413 75.3393 77.3053C75.4593 77.3053 75.5553 77.3053 75.6273 77.3053C75.7113 77.3053 75.7833 77.3113 75.8433 77.3233V79.1053ZM81.3739 86.9893C80.6419 86.9893 79.9759 86.8633 79.3759 86.6113C78.7879 86.3473 78.2779 85.9933 77.8459 85.5493C77.4139 85.0933 77.0779 84.5773 76.8379 84.0013C76.6099 83.4133 76.4959 82.7893 76.4959 82.1293C76.4959 81.2413 76.6999 80.4313 77.1079 79.6993C77.5159 78.9553 78.0859 78.3613 78.8179 77.9173C79.5499 77.4613 80.4079 77.2333 81.3919 77.2333C82.3759 77.2333 83.2219 77.4613 83.9299 77.9173C84.6499 78.3613 85.2079 78.9493 85.6039 79.6813C85.9999 80.4133 86.1979 81.1993 86.1979 82.0393C86.1979 82.1833 86.1919 82.3213 86.1799 82.4533C86.1679 82.5733 86.1559 82.6753 86.1439 82.7593H78.6019C78.6379 83.3113 78.7879 83.7973 79.0519 84.2173C79.3279 84.6253 79.6759 84.9493 80.0959 85.1893C80.5159 85.4173 80.9659 85.5313 81.4459 85.5313C81.9739 85.5313 82.4719 85.3993 82.9399 85.1353C83.4199 84.8713 83.7439 84.5233 83.9119 84.0913L85.6039 84.5773C85.3999 85.0333 85.0879 85.4473 84.6679 85.8193C84.2599 86.1793 83.7739 86.4673 83.2099 86.6833C82.6459 86.8873 82.0339 86.9893 81.3739 86.9893ZM78.5479 81.4453H84.2359C84.1999 80.9053 84.0439 80.4313 83.7679 80.0233C83.5039 79.6033 83.1619 79.2793 82.7419 79.0513C82.3339 78.8113 81.8779 78.6913 81.3739 78.6913C80.8819 78.6913 80.4259 78.8113 80.0059 79.0513C79.5979 79.2793 79.2619 79.6033 78.9979 80.0233C78.7339 80.4313 78.5839 80.9053 78.5479 81.4453ZM101.345 75.8113H97.0973V86.8093H95.0633V75.8113H90.7973V74.0293H101.345V75.8113ZM102.807 86.8093V77.3953H104.787V86.8093H102.807ZM102.807 75.8473V73.6693H104.787V75.8473H102.807ZM121.567 86.8093H119.587V81.5353C119.587 80.6593 119.443 80.0173 119.155 79.6093C118.867 79.2013 118.447 78.9973 117.895 78.9973C117.343 78.9973 116.827 79.2073 116.347 79.6273C115.879 80.0353 115.549 80.5693 115.357 81.2293V86.8093H113.377V81.5353C113.377 80.6593 113.233 80.0173 112.945 79.6093C112.657 79.2013 112.243 78.9973 111.703 78.9973C111.151 78.9973 110.635 79.2013 110.155 79.6093C109.687 80.0173 109.351 80.5513 109.147 81.2113V86.8093H107.167V77.3953H108.967V79.2853C109.339 78.6253 109.825 78.1213 110.425 77.7733C111.037 77.4133 111.733 77.2333 112.513 77.2333C113.293 77.2333 113.905 77.4373 114.349 77.8453C114.805 78.2533 115.087 78.7633 115.195 79.3753C115.603 78.6793 116.101 78.1513 116.689 77.7913C117.289 77.4193 117.973 77.2333 118.741 77.2333C119.293 77.2333 119.755 77.3353 120.127 77.5393C120.499 77.7433 120.787 78.0253 120.991 78.3853C121.195 78.7333 121.339 79.1413 121.423 79.6093C121.519 80.0653 121.567 80.5513 121.567 81.0673V86.8093ZM128.114 86.9893C127.382 86.9893 126.716 86.8633 126.116 86.6113C125.528 86.3473 125.018 85.9933 124.586 85.5493C124.154 85.0933 123.818 84.5773 123.578 84.0013C123.35 83.4133 123.236 82.7893 123.236 82.1293C123.236 81.2413 123.44 80.4313 123.848 79.6993C124.256 78.9553 124.826 78.3613 125.558 77.9173C126.29 77.4613 127.148 77.2333 128.132 77.2333C129.116 77.2333 129.962 77.4613 130.67 77.9173C131.39 78.3613 131.948 78.9493 132.344 79.6813C132.74 80.4133 132.938 81.1993 132.938 82.0393C132.938 82.1833 132.932 82.3213 132.92 82.4533C132.908 82.5733 132.896 82.6753 132.884 82.7593H125.342C125.378 83.3113 125.528 83.7973 125.792 84.2173C126.068 84.6253 126.416 84.9493 126.836 85.1893C127.256 85.4173 127.706 85.5313 128.186 85.5313C128.714 85.5313 129.212 85.3993 129.68 85.1353C130.16 84.8713 130.484 84.5233 130.652 84.0913L132.344 84.5773C132.14 85.0333 131.828 85.4473 131.408 85.8193C131 86.1793 130.514 86.4673 129.95 86.6833C129.386 86.8873 128.774 86.9893 128.114 86.9893ZM125.288 81.4453H130.976C130.94 80.9053 130.784 80.4313 130.508 80.0233C130.244 79.6033 129.902 79.2793 129.482 79.0513C129.074 78.8113 128.618 78.6913 128.114 78.6913C127.622 78.6913 127.166 78.8113 126.746 79.0513C126.338 79.2793 126.002 79.6033 125.738 80.0233C125.474 80.4313 125.324 80.9053 125.288 81.4453Z" fill="#030712" fill-opacity="0.6"/>
<path d="M675.612 80.9593C675.612 80.1433 675.816 79.3993 676.224 78.7273C676.632 78.0553 677.184 77.5213 677.88 77.1253C678.588 76.7293 679.374 76.5313 680.238 76.5313C681.174 76.5313 681.99 76.7593 682.686 77.2153C683.382 77.6593 683.922 78.3073 684.306 79.1593C684.702 79.9993 684.9 81.0133 684.9 82.2013C684.9 83.8333 684.696 85.1953 684.288 86.2873C683.892 87.3793 683.328 88.2013 682.596 88.7533C681.864 89.3053 681.006 89.5813 680.022 89.5813C679.218 89.5813 678.474 89.3893 677.79 89.0053C677.106 88.6333 676.554 88.1113 676.134 87.4393L677.304 86.2153C677.58 86.7073 677.964 87.1033 678.456 87.4033C678.948 87.7033 679.482 87.8533 680.058 87.8533C680.658 87.8533 681.18 87.6793 681.624 87.3313C682.068 86.9953 682.41 86.5033 682.65 85.8553C682.902 85.2073 683.034 84.4213 683.046 83.4973C682.878 83.8453 682.644 84.1513 682.344 84.4153C682.044 84.6793 681.696 84.8833 681.3 85.0273C680.916 85.1713 680.496 85.2433 680.04 85.2433C679.212 85.2433 678.462 85.0513 677.79 84.6673C677.118 84.2833 676.584 83.7733 676.188 83.1373C675.804 82.4893 675.612 81.7633 675.612 80.9593ZM680.22 78.2233C679.728 78.2233 679.272 78.3493 678.852 78.6013C678.444 78.8413 678.114 79.1713 677.862 79.5913C677.622 79.9993 677.502 80.4553 677.502 80.9593C677.502 81.4513 677.622 81.9013 677.862 82.3093C678.114 82.7173 678.444 83.0473 678.852 83.2993C679.272 83.5393 679.728 83.6593 680.22 83.6593C680.724 83.6593 681.18 83.5393 681.588 83.2993C681.996 83.0473 682.32 82.7173 682.56 82.3093C682.812 81.9013 682.938 81.4513 682.938 80.9593C682.938 80.4673 682.812 80.0113 682.56 79.5913C682.308 79.1713 681.978 78.8413 681.57 78.6013C681.162 78.3493 680.712 78.2233 680.22 78.2233ZM686.788 79.7713V77.4853H688.426V79.7713H686.788ZM686.788 86.8093V84.5053H688.426V86.8093H686.788ZM699.741 81.5353C699.741 82.5913 699.537 83.5333 699.129 84.3613C698.733 85.1773 698.187 85.8193 697.491 86.2873C696.807 86.7553 696.021 86.9893 695.133 86.9893C694.257 86.9893 693.471 86.7553 692.775 86.2873C692.079 85.8193 691.527 85.1773 691.119 84.3613C690.723 83.5333 690.525 82.5913 690.525 81.5353C690.525 80.4793 690.723 79.5433 691.119 78.7273C691.527 77.8993 692.079 77.2513 692.775 76.7833C693.471 76.3033 694.257 76.0633 695.133 76.0633C696.021 76.0633 696.807 76.3033 697.491 76.7833C698.187 77.2513 698.733 77.8993 699.129 78.7273C699.537 79.5433 699.741 80.4793 699.741 81.5353ZM697.725 81.5353C697.725 80.8153 697.617 80.1853 697.401 79.6453C697.185 79.0933 696.879 78.6673 696.483 78.3673C696.087 78.0553 695.637 77.8993 695.133 77.8993C694.617 77.8993 694.161 78.0553 693.765 78.3673C693.369 78.6673 693.057 79.0933 692.829 79.6453C692.613 80.1853 692.505 80.8153 692.505 81.5353C692.505 82.2553 692.613 82.8853 692.829 83.4253C693.057 83.9653 693.369 84.3913 693.765 84.7033C694.161 85.0033 694.617 85.1533 695.133 85.1533C695.637 85.1533 696.081 85.0033 696.465 84.7033C696.861 84.3913 697.167 83.9653 697.383 83.4253C697.611 82.8853 697.725 82.2553 697.725 81.5353ZM710.798 81.5353C710.798 82.5913 710.594 83.5333 710.186 84.3613C709.79 85.1773 709.244 85.8193 708.548 86.2873C707.864 86.7553 707.078 86.9893 706.19 86.9893C705.314 86.9893 704.528 86.7553 703.832 86.2873C703.136 85.8193 702.584 85.1773 702.176 84.3613C701.78 83.5333 701.582 82.5913 701.582 81.5353C701.582 80.4793 701.78 79.5433 702.176 78.7273C702.584 77.8993 703.136 77.2513 703.832 76.7833C704.528 76.3033 705.314 76.0633 706.19 76.0633C707.078 76.0633 707.864 76.3033 708.548 76.7833C709.244 77.2513 709.79 77.8993 710.186 78.7273C710.594 79.5433 710.798 80.4793 710.798 81.5353ZM708.782 81.5353C708.782 80.8153 708.674 80.1853 708.458 79.6453C708.242 79.0933 707.936 78.6673 707.54 78.3673C707.144 78.0553 706.694 77.8993 706.19 77.8993C705.674 77.8993 705.218 78.0553 704.822 78.3673C704.426 78.6673 704.114 79.0933 703.886 79.6453C703.67 80.1853 703.562 80.8153 703.562 81.5353C703.562 82.2553 703.67 82.8853 703.886 83.4253C704.114 83.9653 704.426 84.3913 704.822 84.7033C705.218 85.0033 705.674 85.1533 706.19 85.1533C706.694 85.1533 707.138 85.0033 707.522 84.7033C707.918 84.3913 708.224 83.9653 708.44 83.4253C708.668 82.8853 708.782 82.2553 708.782 81.5353ZM717.608 86.8093V74.0293H722.972C723.548 74.0293 724.076 74.1493 724.556 74.3893C725.036 74.6293 725.456 74.9473 725.816 75.3433C726.176 75.7393 726.452 76.1833 726.644 76.6753C726.836 77.1673 726.932 77.6713 726.932 78.1873C726.932 78.8953 726.77 79.5733 726.446 80.2213C726.134 80.8573 725.684 81.3733 725.096 81.7693C724.52 82.1653 723.848 82.3633 723.08 82.3633H719.624V86.8093H717.608ZM719.624 80.5813H722.954C723.338 80.5813 723.674 80.4793 723.962 80.2753C724.25 80.0593 724.472 79.7713 724.628 79.4113C724.796 79.0513 724.88 78.6433 724.88 78.1873C724.88 77.7193 724.784 77.3053 724.592 76.9453C724.4 76.5853 724.148 76.3093 723.836 76.1173C723.536 75.9133 723.206 75.8113 722.846 75.8113H719.624V80.5813ZM739.569 86.8093V77.7013L735.807 84.6133H734.619L730.839 77.7013V86.8093H728.823V74.0293H730.983L735.213 81.8413L739.443 74.0293H741.603V86.8093H739.569Z" fill="#030712"/>
<line y1="45.3093" x2="744" y2="45.3093" stroke="#030712" stroke-opacity="0.2" stroke-dasharray="5 5"/>
<line y1="114.309" x2="744" y2="114.309" stroke="#030712" stroke-opacity="0.2" stroke-dasharray="5 5"/>
<rect y="138.809" width="232" height="56" rx="12" fill="#030712" fill-opacity="0.05"/>
<path d="M17.2784 172.809V161.173H21.5398C22.3655 161.173 23.0492 161.309 23.5909 161.582C24.1326 161.851 24.5379 162.217 24.8068 162.679C25.0758 163.137 25.2102 163.654 25.2102 164.23C25.2102 164.715 25.1212 165.124 24.9432 165.457C24.7652 165.787 24.5265 166.052 24.2273 166.253C23.9318 166.449 23.6061 166.593 23.25 166.684V166.798C23.6364 166.817 24.0133 166.942 24.3807 167.173C24.7519 167.4 25.0587 167.724 25.3011 168.145C25.5436 168.565 25.6648 169.076 25.6648 169.679C25.6648 170.273 25.5246 170.807 25.2443 171.281C24.9678 171.751 24.5398 172.124 23.9602 172.4C23.3807 172.673 22.6402 172.809 21.7386 172.809H17.2784ZM19.0341 171.304H21.5682C22.4091 171.304 23.0114 171.141 23.375 170.815C23.7386 170.489 23.9205 170.082 23.9205 169.593C23.9205 169.226 23.8277 168.889 23.642 168.582C23.4564 168.275 23.1913 168.031 22.8466 167.849C22.5057 167.667 22.1004 167.576 21.6307 167.576H19.0341V171.304ZM19.0341 166.207H21.3864C21.7803 166.207 22.1345 166.131 22.4489 165.98C22.767 165.828 23.0189 165.616 23.2045 165.343C23.3939 165.067 23.4886 164.741 23.4886 164.366C23.4886 163.885 23.3201 163.482 22.983 163.156C22.6458 162.83 22.1288 162.667 21.4318 162.667H19.0341V166.207ZM31.2869 172.985C30.4688 172.985 29.7547 172.798 29.1449 172.423C28.535 172.048 28.0616 171.523 27.7244 170.849C27.3873 170.175 27.2188 169.387 27.2188 168.485C27.2188 167.58 27.3873 166.788 27.7244 166.11C28.0616 165.432 28.535 164.906 29.1449 164.531C29.7547 164.156 30.4688 163.968 31.2869 163.968C32.1051 163.968 32.8191 164.156 33.429 164.531C34.0388 164.906 34.5123 165.432 34.8494 166.11C35.1866 166.788 35.3551 167.58 35.3551 168.485C35.3551 169.387 35.1866 170.175 34.8494 170.849C34.5123 171.523 34.0388 172.048 33.429 172.423C32.8191 172.798 32.1051 172.985 31.2869 172.985ZM31.2926 171.559C31.8229 171.559 32.2623 171.419 32.6108 171.139C32.9593 170.859 33.2169 170.485 33.3835 170.02C33.554 169.554 33.6392 169.04 33.6392 168.48C33.6392 167.923 33.554 167.412 33.3835 166.946C33.2169 166.476 32.9593 166.099 32.6108 165.815C32.2623 165.531 31.8229 165.389 31.2926 165.389C30.7585 165.389 30.3153 165.531 29.9631 165.815C29.6146 166.099 29.3551 166.476 29.1847 166.946C29.018 167.412 28.9347 167.923 28.9347 168.48C28.9347 169.04 29.018 169.554 29.1847 170.02C29.3551 170.485 29.6146 170.859 29.9631 171.139C30.3153 171.419 30.7585 171.559 31.2926 171.559ZM39.7912 173.003C39.2382 173.003 38.7382 172.9 38.2912 172.696C37.8442 172.487 37.4901 172.186 37.2287 171.792C36.9711 171.398 36.8423 170.915 36.8423 170.343C36.8423 169.851 36.937 169.446 37.1264 169.128C37.3158 168.809 37.5715 168.557 37.8935 168.372C38.2154 168.186 38.5753 168.046 38.973 167.951C39.3707 167.857 39.776 167.785 40.1889 167.735C40.7116 167.675 41.1359 167.626 41.4616 167.588C41.7874 167.546 42.0241 167.48 42.1719 167.389C42.3196 167.298 42.3935 167.15 42.3935 166.946V166.906C42.3935 166.41 42.2533 166.025 41.973 165.753C41.6965 165.48 41.2836 165.343 40.7344 165.343C40.1624 165.343 39.7116 165.47 39.3821 165.724C39.0563 165.974 38.831 166.253 38.706 166.559L37.1094 166.196C37.2988 165.665 37.5753 165.237 37.9389 164.912C38.3063 164.582 38.7287 164.343 39.206 164.196C39.6832 164.044 40.1851 163.968 40.7116 163.968C41.0601 163.968 41.4295 164.01 41.8196 164.093C42.2135 164.173 42.581 164.321 42.9219 164.537C43.2666 164.753 43.5488 165.061 43.7685 165.463C43.9882 165.86 44.098 166.378 44.098 167.014V172.809H42.4389V171.616H42.3707C42.2609 171.836 42.0961 172.052 41.8764 172.264C41.6567 172.476 41.3745 172.652 41.0298 172.792C40.6851 172.932 40.2723 173.003 39.7912 173.003ZM40.1605 171.639C40.6302 171.639 41.0317 171.546 41.3651 171.36C41.7022 171.175 41.9579 170.932 42.1321 170.633C42.3101 170.33 42.3991 170.006 42.3991 169.662V168.537C42.3385 168.597 42.2211 168.654 42.0469 168.707C41.8764 168.756 41.6813 168.8 41.4616 168.838C41.242 168.872 41.0279 168.904 40.8196 168.934C40.6113 168.961 40.437 168.984 40.2969 169.003C39.9673 169.044 39.6662 169.114 39.3935 169.213C39.1245 169.311 38.9086 169.453 38.7457 169.639C38.5866 169.821 38.5071 170.063 38.5071 170.366C38.5071 170.787 38.6624 171.105 38.973 171.321C39.2836 171.533 39.6795 171.639 40.1605 171.639ZM46.3608 172.809V164.082H48.0028V165.468H48.0938C48.2528 164.999 48.5331 164.629 48.9347 164.36C49.34 164.088 49.7983 163.951 50.3097 163.951C50.4157 163.951 50.5407 163.955 50.6847 163.963C50.8324 163.97 50.9479 163.98 51.0312 163.991V165.616C50.9631 165.597 50.8419 165.576 50.6676 165.554C50.4934 165.527 50.3191 165.514 50.1449 165.514C49.7434 165.514 49.3854 165.599 49.071 165.77C48.7604 165.936 48.5142 166.169 48.3324 166.468C48.1506 166.764 48.0597 167.101 48.0597 167.48V172.809H46.3608ZM55.456 172.98C54.7514 172.98 54.1226 172.8 53.5696 172.44C53.0204 172.076 52.5885 171.559 52.2741 170.889C51.9635 170.215 51.8082 169.406 51.8082 168.463C51.8082 167.52 51.9654 166.713 52.2798 166.042C52.598 165.372 53.0336 164.859 53.5866 164.503C54.1397 164.146 54.7666 163.968 55.4673 163.968C56.009 163.968 56.4446 164.059 56.7741 164.241C57.1075 164.419 57.3651 164.628 57.5469 164.866C57.7325 165.105 57.8764 165.315 57.9787 165.497H58.081V161.173H59.7798V172.809H58.1207V171.451H57.9787C57.8764 171.637 57.7287 171.849 57.5355 172.088C57.3461 172.326 57.0848 172.535 56.7514 172.713C56.4181 172.891 55.9863 172.98 55.456 172.98ZM55.831 171.531C56.3196 171.531 56.7325 171.402 57.0696 171.145C57.4105 170.883 57.6681 170.521 57.8423 170.059C58.0204 169.597 58.1094 169.059 58.1094 168.446C58.1094 167.84 58.0223 167.309 57.848 166.855C57.6738 166.4 57.4181 166.046 57.081 165.792C56.7438 165.538 56.3272 165.412 55.831 165.412C55.3196 165.412 54.8935 165.544 54.5526 165.809C54.2116 166.074 53.9541 166.436 53.7798 166.895C53.6094 167.353 53.5241 167.87 53.5241 168.446C53.5241 169.029 53.6113 169.554 53.7855 170.02C53.9598 170.485 54.2173 170.855 54.5582 171.128C54.9029 171.396 55.3272 171.531 55.831 171.531ZM62.2045 172.809V164.082H63.9034V172.809H62.2045ZM63.0625 162.735C62.767 162.735 62.5133 162.637 62.3011 162.44C62.0928 162.239 61.9886 162.001 61.9886 161.724C61.9886 161.444 62.0928 161.205 62.3011 161.008C62.5133 160.807 62.767 160.707 63.0625 160.707C63.358 160.707 63.6098 160.807 63.8182 161.008C64.0303 161.205 64.1364 161.444 64.1364 161.724C64.1364 162.001 64.0303 162.239 63.8182 162.44C63.6098 162.637 63.358 162.735 63.0625 162.735ZM67.8878 167.628V172.809H66.1889V164.082H67.8196V165.503H67.9276C68.1283 165.04 68.4427 164.669 68.8707 164.389C69.3026 164.109 69.8461 163.968 70.5014 163.968C71.0961 163.968 71.617 164.093 72.0639 164.343C72.5109 164.59 72.8575 164.957 73.1037 165.446C73.3499 165.934 73.473 166.538 73.473 167.258V172.809H71.7741V167.463C71.7741 166.83 71.6094 166.336 71.2798 165.98C70.9503 165.62 70.4976 165.44 69.9219 165.44C69.5279 165.44 69.1776 165.525 68.8707 165.696C68.5677 165.866 68.3272 166.116 68.1491 166.446C67.9749 166.771 67.8878 167.165 67.8878 167.628ZM79.4105 176.264C78.7173 176.264 78.1207 176.173 77.6207 175.991C77.1245 175.809 76.7192 175.569 76.4048 175.27C76.0904 174.97 75.8556 174.643 75.7003 174.287L77.1605 173.684C77.2628 173.851 77.3991 174.027 77.5696 174.213C77.7438 174.402 77.9787 174.563 78.2741 174.696C78.5734 174.828 78.9579 174.895 79.4276 174.895C80.0715 174.895 80.6037 174.737 81.0241 174.423C81.4446 174.112 81.6548 173.616 81.6548 172.934V171.218H81.5469C81.4446 171.404 81.2969 171.61 81.1037 171.838C80.9143 172.065 80.6529 172.262 80.3196 172.429C79.9863 172.595 79.5526 172.679 79.0185 172.679C78.3291 172.679 77.7079 172.518 77.1548 172.196C76.6056 171.87 76.17 171.391 75.848 170.758C75.5298 170.122 75.3707 169.34 75.3707 168.412C75.3707 167.484 75.5279 166.688 75.8423 166.025C76.1605 165.362 76.5961 164.855 77.1491 164.503C77.7022 164.146 78.3291 163.968 79.0298 163.968C79.5715 163.968 80.009 164.059 80.3423 164.241C80.6757 164.419 80.9351 164.628 81.1207 164.866C81.3101 165.105 81.456 165.315 81.5582 165.497H81.6832V164.082H83.348V173.003C83.348 173.753 83.1738 174.368 82.8253 174.849C82.4768 175.33 82.0052 175.686 81.4105 175.917C80.8196 176.148 80.1529 176.264 79.4105 176.264ZM79.3935 171.27C79.8821 171.27 80.295 171.156 80.6321 170.929C80.973 170.698 81.2306 170.368 81.4048 169.94C81.5829 169.508 81.6719 168.991 81.6719 168.389C81.6719 167.802 81.5848 167.285 81.4105 166.838C81.2363 166.391 80.9806 166.042 80.6435 165.792C80.3063 165.538 79.8897 165.412 79.3935 165.412C78.8821 165.412 78.456 165.544 78.1151 165.809C77.7741 166.071 77.5166 166.427 77.3423 166.878C77.1719 167.328 77.0866 167.832 77.0866 168.389C77.0866 168.961 77.1738 169.463 77.348 169.895C77.5223 170.326 77.7798 170.663 78.1207 170.906C78.4654 171.148 78.8897 171.27 79.3935 171.27ZM89.9972 172.809V161.173H94.1449C95.0502 161.173 95.8002 161.338 96.3949 161.667C96.9896 161.997 97.4347 162.448 97.7301 163.02C98.0256 163.588 98.1733 164.228 98.1733 164.94C98.1733 165.656 98.0237 166.3 97.7244 166.872C97.429 167.44 96.982 167.891 96.3835 168.224C95.7888 168.554 95.0407 168.718 94.1392 168.718H91.2869V167.23H93.9801C94.5521 167.23 95.0161 167.131 95.3722 166.934C95.7282 166.734 95.9896 166.461 96.1562 166.116C96.3229 165.771 96.4062 165.379 96.4062 164.94C96.4062 164.501 96.3229 164.11 96.1562 163.77C95.9896 163.429 95.7263 163.162 95.3665 162.968C95.0104 162.775 94.5407 162.679 93.9574 162.679H91.7528V172.809H89.9972ZM103.662 172.985C102.844 172.985 102.13 172.798 101.52 172.423C100.91 172.048 100.437 171.523 100.099 170.849C99.7623 170.175 99.5938 169.387 99.5938 168.485C99.5938 167.58 99.7623 166.788 100.099 166.11C100.437 165.432 100.91 164.906 101.52 164.531C102.13 164.156 102.844 163.968 103.662 163.968C104.48 163.968 105.194 164.156 105.804 164.531C106.414 164.906 106.887 165.432 107.224 166.11C107.562 166.788 107.73 167.58 107.73 168.485C107.73 169.387 107.562 170.175 107.224 170.849C106.887 171.523 106.414 172.048 105.804 172.423C105.194 172.798 104.48 172.985 103.662 172.985ZM103.668 171.559C104.198 171.559 104.637 171.419 104.986 171.139C105.334 170.859 105.592 170.485 105.759 170.02C105.929 169.554 106.014 169.04 106.014 168.48C106.014 167.923 105.929 167.412 105.759 166.946C105.592 166.476 105.334 166.099 104.986 165.815C104.637 165.531 104.198 165.389 103.668 165.389C103.134 165.389 102.69 165.531 102.338 165.815C101.99 166.099 101.73 166.476 101.56 166.946C101.393 167.412 101.31 167.923 101.31 168.48C101.31 169.04 101.393 169.554 101.56 170.02C101.73 170.485 101.99 170.859 102.338 171.139C102.69 171.419 103.134 171.559 103.668 171.559ZM109.626 172.809V164.082H111.325V172.809H109.626ZM110.484 162.735C110.189 162.735 109.935 162.637 109.723 162.44C109.515 162.239 109.411 162.001 109.411 161.724C109.411 161.444 109.515 161.205 109.723 161.008C109.935 160.807 110.189 160.707 110.484 160.707C110.78 160.707 111.032 160.807 111.24 161.008C111.452 161.205 111.558 161.444 111.558 161.724C111.558 162.001 111.452 162.239 111.24 162.44C111.032 162.637 110.78 162.735 110.484 162.735ZM115.31 167.628V172.809H113.611V164.082H115.241V165.503H115.349C115.55 165.04 115.865 164.669 116.293 164.389C116.724 164.109 117.268 163.968 117.923 163.968C118.518 163.968 119.039 164.093 119.486 164.343C119.933 164.59 120.279 164.957 120.526 165.446C120.772 165.934 120.895 166.538 120.895 167.258V172.809H119.196V167.463C119.196 166.83 119.031 166.336 118.702 165.98C118.372 165.62 117.92 165.44 117.344 165.44C116.95 165.44 116.599 165.525 116.293 165.696C115.99 165.866 115.749 166.116 115.571 166.446C115.397 166.771 115.31 167.165 115.31 167.628ZM127.247 164.082V165.446H122.48V164.082H127.247ZM123.759 161.991H125.457V170.247C125.457 170.576 125.507 170.824 125.605 170.991C125.704 171.154 125.83 171.266 125.986 171.326C126.145 171.383 126.317 171.412 126.503 171.412C126.639 171.412 126.759 171.402 126.861 171.383C126.963 171.364 127.043 171.349 127.099 171.338L127.406 172.741C127.308 172.779 127.168 172.817 126.986 172.855C126.804 172.896 126.577 172.919 126.304 172.923C125.857 172.931 125.44 172.851 125.054 172.684C124.668 172.518 124.355 172.26 124.116 171.912C123.878 171.563 123.759 171.126 123.759 170.599V161.991ZM138.503 166.253V167.73H133.344V166.253H138.503ZM145.138 172.809V161.173H146.893V171.298H152.166V172.809H145.138ZM156.572 173.003C156.019 173.003 155.519 172.9 155.072 172.696C154.625 172.487 154.271 172.186 154.01 171.792C153.752 171.398 153.624 170.915 153.624 170.343C153.624 169.851 153.718 169.446 153.908 169.128C154.097 168.809 154.353 168.557 154.675 168.372C154.997 168.186 155.357 168.046 155.754 167.951C156.152 167.857 156.557 167.785 156.97 167.735C157.493 167.675 157.917 167.626 158.243 167.588C158.569 167.546 158.805 167.48 158.953 167.389C159.101 167.298 159.175 167.15 159.175 166.946V166.906C159.175 166.41 159.035 166.025 158.754 165.753C158.478 165.48 158.065 165.343 157.516 165.343C156.944 165.343 156.493 165.47 156.163 165.724C155.838 165.974 155.612 166.253 155.487 166.559L153.891 166.196C154.08 165.665 154.357 165.237 154.72 164.912C155.088 164.582 155.51 164.343 155.987 164.196C156.464 164.044 156.966 163.968 157.493 163.968C157.841 163.968 158.211 164.01 158.601 164.093C158.995 164.173 159.362 164.321 159.703 164.537C160.048 164.753 160.33 165.061 160.55 165.463C160.769 165.86 160.879 166.378 160.879 167.014V172.809H159.22V171.616H159.152C159.042 171.836 158.877 172.052 158.658 172.264C158.438 172.476 158.156 172.652 157.811 172.792C157.466 172.932 157.054 173.003 156.572 173.003ZM156.942 171.639C157.411 171.639 157.813 171.546 158.146 171.36C158.483 171.175 158.739 170.932 158.913 170.633C159.091 170.33 159.18 170.006 159.18 169.662V168.537C159.12 168.597 159.002 168.654 158.828 168.707C158.658 168.756 158.463 168.8 158.243 168.838C158.023 168.872 157.809 168.904 157.601 168.934C157.393 168.961 157.218 168.984 157.078 169.003C156.749 169.044 156.447 169.114 156.175 169.213C155.906 169.311 155.69 169.453 155.527 169.639C155.368 169.821 155.288 170.063 155.288 170.366C155.288 170.787 155.444 171.105 155.754 171.321C156.065 171.533 156.461 171.639 156.942 171.639ZM164.483 164.082L166.409 167.48L168.352 164.082H170.21L167.489 168.446L170.233 172.809H168.375L166.409 169.548L164.449 172.809H162.585L165.301 168.446L162.619 164.082H164.483ZM171.955 172.809V164.082H173.585V165.503H173.693C173.875 165.021 174.172 164.646 174.585 164.378C174.998 164.105 175.492 163.968 176.068 163.968C176.652 163.968 177.14 164.105 177.534 164.378C177.932 164.65 178.225 165.025 178.415 165.503H178.506C178.714 165.037 179.045 164.665 179.5 164.389C179.955 164.109 180.496 163.968 181.125 163.968C181.917 163.968 182.562 164.217 183.062 164.713C183.566 165.209 183.818 165.957 183.818 166.957V172.809H182.119V167.116C182.119 166.525 181.958 166.097 181.636 165.832C181.314 165.567 180.93 165.434 180.483 165.434C179.93 165.434 179.5 165.605 179.193 165.946C178.886 166.283 178.733 166.717 178.733 167.247V172.809H177.04V167.008C177.04 166.535 176.892 166.154 176.597 165.866C176.301 165.578 175.917 165.434 175.443 165.434C175.121 165.434 174.824 165.52 174.551 165.69C174.282 165.857 174.064 166.09 173.898 166.389C173.735 166.688 173.653 167.035 173.653 167.429V172.809H171.955ZM186.095 172.809V164.082H187.794V172.809H186.095ZM186.953 162.735C186.658 162.735 186.404 162.637 186.192 162.44C185.983 162.239 185.879 162.001 185.879 161.724C185.879 161.444 185.983 161.205 186.192 161.008C186.404 160.807 186.658 160.707 186.953 160.707C187.249 160.707 187.5 160.807 187.709 161.008C187.921 161.205 188.027 161.444 188.027 161.724C188.027 162.001 187.921 162.239 187.709 162.44C187.5 162.637 187.249 162.735 186.953 162.735ZM190.08 176.082V164.082H191.739V165.497H191.881C191.979 165.315 192.121 165.105 192.307 164.866C192.492 164.628 192.75 164.419 193.08 164.241C193.409 164.059 193.845 163.968 194.386 163.968C195.091 163.968 195.72 164.146 196.273 164.503C196.826 164.859 197.259 165.372 197.574 166.042C197.892 166.713 198.051 167.52 198.051 168.463C198.051 169.406 197.894 170.215 197.58 170.889C197.265 171.559 196.833 172.076 196.284 172.44C195.735 172.8 195.108 172.98 194.403 172.98C193.873 172.98 193.439 172.891 193.102 172.713C192.769 172.535 192.508 172.326 192.318 172.088C192.129 171.849 191.983 171.637 191.881 171.451H191.778V176.082H190.08ZM191.744 168.446C191.744 169.059 191.833 169.597 192.011 170.059C192.189 170.521 192.447 170.883 192.784 171.145C193.121 171.402 193.534 171.531 194.023 171.531C194.53 171.531 194.955 171.396 195.295 171.128C195.636 170.855 195.894 170.485 196.068 170.02C196.246 169.554 196.335 169.029 196.335 168.446C196.335 167.87 196.248 167.353 196.074 166.895C195.903 166.436 195.646 166.074 195.301 165.809C194.96 165.544 194.534 165.412 194.023 165.412C193.53 165.412 193.114 165.538 192.773 165.792C192.436 166.046 192.18 166.4 192.006 166.855C191.831 167.309 191.744 167.84 191.744 168.446ZM205.483 169.19V164.082H207.188V172.809H205.517V171.298H205.426C205.225 171.764 204.903 172.152 204.46 172.463C204.021 172.77 203.473 172.923 202.818 172.923C202.258 172.923 201.761 172.8 201.33 172.554C200.902 172.304 200.564 171.934 200.318 171.446C200.076 170.957 199.955 170.353 199.955 169.633V164.082H201.653V169.429C201.653 170.023 201.818 170.497 202.148 170.849C202.477 171.201 202.905 171.378 203.432 171.378C203.75 171.378 204.066 171.298 204.381 171.139C204.699 170.98 204.962 170.739 205.17 170.417C205.383 170.095 205.487 169.686 205.483 169.19ZM209.47 172.809V164.082H211.112V165.468H211.203C211.362 164.999 211.643 164.629 212.044 164.36C212.449 164.088 212.908 163.951 213.419 163.951C213.525 163.951 213.65 163.955 213.794 163.963C213.942 163.97 214.057 163.98 214.141 163.991V165.616C214.072 165.597 213.951 165.576 213.777 165.554C213.603 165.527 213.429 165.514 213.254 165.514C212.853 165.514 212.495 165.599 212.18 165.77C211.87 165.936 211.624 166.169 211.442 166.468C211.26 166.764 211.169 167.101 211.169 167.48V172.809H209.47Z" fill="#030712" fill-opacity="0.8"/>
<rect x="256" y="138.809" width="232" height="56" rx="12" fill="#030712" fill-opacity="0.05"/>
<path d="M285.045 172.809H281.278V161.173H285.165C286.305 161.173 287.284 161.406 288.102 161.872C288.92 162.334 289.547 162.999 289.983 163.866C290.422 164.73 290.642 165.766 290.642 166.974C290.642 168.186 290.42 169.228 289.977 170.099C289.538 170.97 288.902 171.641 288.068 172.11C287.235 172.576 286.227 172.809 285.045 172.809ZM283.034 171.275H284.949C285.835 171.275 286.572 171.109 287.159 170.775C287.746 170.438 288.186 169.951 288.477 169.315C288.769 168.675 288.915 167.895 288.915 166.974C288.915 166.061 288.769 165.287 288.477 164.65C288.189 164.014 287.759 163.531 287.188 163.201C286.616 162.872 285.905 162.707 285.057 162.707H283.034V171.275ZM292.689 172.809V164.082H294.331V165.468H294.422C294.581 164.999 294.861 164.629 295.263 164.36C295.668 164.088 296.126 163.951 296.638 163.951C296.744 163.951 296.869 163.955 297.013 163.963C297.161 163.97 297.276 163.98 297.359 163.991V165.616C297.291 165.597 297.17 165.576 296.996 165.554C296.821 165.527 296.647 165.514 296.473 165.514C296.071 165.514 295.714 165.599 295.399 165.77C295.089 165.936 294.842 166.169 294.661 166.468C294.479 166.764 294.388 167.101 294.388 167.48V172.809H292.689ZM302.193 172.985C301.375 172.985 300.661 172.798 300.051 172.423C299.441 172.048 298.968 171.523 298.631 170.849C298.294 170.175 298.125 169.387 298.125 168.485C298.125 167.58 298.294 166.788 298.631 166.11C298.968 165.432 299.441 164.906 300.051 164.531C300.661 164.156 301.375 163.968 302.193 163.968C303.011 163.968 303.725 164.156 304.335 164.531C304.945 164.906 305.419 165.432 305.756 166.11C306.093 166.788 306.261 167.58 306.261 168.485C306.261 169.387 306.093 170.175 305.756 170.849C305.419 171.523 304.945 172.048 304.335 172.423C303.725 172.798 303.011 172.985 302.193 172.985ZM302.199 171.559C302.729 171.559 303.169 171.419 303.517 171.139C303.866 170.859 304.123 170.485 304.29 170.02C304.46 169.554 304.545 169.04 304.545 168.48C304.545 167.923 304.46 167.412 304.29 166.946C304.123 166.476 303.866 166.099 303.517 165.815C303.169 165.531 302.729 165.389 302.199 165.389C301.665 165.389 301.222 165.531 300.869 165.815C300.521 166.099 300.261 166.476 300.091 166.946C299.924 167.412 299.841 167.923 299.841 168.48C299.841 169.04 299.924 169.554 300.091 170.02C300.261 170.485 300.521 170.859 300.869 171.139C301.222 171.419 301.665 171.559 302.199 171.559ZM308.158 176.082V164.082H309.817V165.497H309.959C310.057 165.315 310.199 165.105 310.385 164.866C310.571 164.628 310.828 164.419 311.158 164.241C311.487 164.059 311.923 163.968 312.464 163.968C313.169 163.968 313.798 164.146 314.351 164.503C314.904 164.859 315.338 165.372 315.652 166.042C315.97 166.713 316.129 167.52 316.129 168.463C316.129 169.406 315.972 170.215 315.658 170.889C315.343 171.559 314.911 172.076 314.362 172.44C313.813 172.8 313.186 172.98 312.482 172.98C311.951 172.98 311.518 172.891 311.18 172.713C310.847 172.535 310.586 172.326 310.396 172.088C310.207 171.849 310.061 171.637 309.959 171.451H309.857V176.082H308.158ZM309.822 168.446C309.822 169.059 309.911 169.597 310.089 170.059C310.268 170.521 310.525 170.883 310.862 171.145C311.199 171.402 311.612 171.531 312.101 171.531C312.608 171.531 313.033 171.396 313.374 171.128C313.714 170.855 313.972 170.485 314.146 170.02C314.324 169.554 314.413 169.029 314.413 168.446C314.413 167.87 314.326 167.353 314.152 166.895C313.982 166.436 313.724 166.074 313.379 165.809C313.038 165.544 312.612 165.412 312.101 165.412C311.608 165.412 311.192 165.538 310.851 165.792C310.514 166.046 310.258 166.4 310.084 166.855C309.91 167.309 309.822 167.84 309.822 168.446ZM318.033 176.082V164.082H319.692V165.497H319.834C319.932 165.315 320.074 165.105 320.26 164.866C320.446 164.628 320.703 164.419 321.033 164.241C321.362 164.059 321.798 163.968 322.339 163.968C323.044 163.968 323.673 164.146 324.226 164.503C324.779 164.859 325.213 165.372 325.527 166.042C325.845 166.713 326.004 167.52 326.004 168.463C326.004 169.406 325.847 170.215 325.533 170.889C325.218 171.559 324.786 172.076 324.237 172.44C323.688 172.8 323.061 172.98 322.357 172.98C321.826 172.98 321.393 172.891 321.055 172.713C320.722 172.535 320.461 172.326 320.271 172.088C320.082 171.849 319.936 171.637 319.834 171.451H319.732V176.082H318.033ZM319.697 168.446C319.697 169.059 319.786 169.597 319.964 170.059C320.143 170.521 320.4 170.883 320.737 171.145C321.074 171.402 321.487 171.531 321.976 171.531C322.483 171.531 322.908 171.396 323.249 171.128C323.589 170.855 323.847 170.485 324.021 170.02C324.199 169.554 324.288 169.029 324.288 168.446C324.288 167.87 324.201 167.353 324.027 166.895C323.857 166.436 323.599 166.074 323.254 165.809C322.913 165.544 322.487 165.412 321.976 165.412C321.483 165.412 321.067 165.538 320.726 165.792C320.389 166.046 320.133 166.4 319.959 166.855C319.785 167.309 319.697 167.84 319.697 168.446ZM327.908 172.809V164.082H329.607V172.809H327.908ZM328.766 162.735C328.47 162.735 328.216 162.637 328.004 162.44C327.796 162.239 327.692 162.001 327.692 161.724C327.692 161.444 327.796 161.205 328.004 161.008C328.216 160.807 328.47 160.707 328.766 160.707C329.061 160.707 329.313 160.807 329.521 161.008C329.733 161.205 329.839 161.444 329.839 161.724C329.839 162.001 329.733 162.239 329.521 162.44C329.313 162.637 329.061 162.735 328.766 162.735ZM333.591 167.628V172.809H331.892V164.082H333.523V165.503H333.631C333.831 165.04 334.146 164.669 334.574 164.389C335.006 164.109 335.549 163.968 336.205 163.968C336.799 163.968 337.32 164.093 337.767 164.343C338.214 164.59 338.561 164.957 338.807 165.446C339.053 165.934 339.176 166.538 339.176 167.258V172.809H337.477V167.463C337.477 166.83 337.313 166.336 336.983 165.98C336.653 165.62 336.201 165.44 335.625 165.44C335.231 165.44 334.881 165.525 334.574 165.696C334.271 165.866 334.03 166.116 333.852 166.446C333.678 166.771 333.591 167.165 333.591 167.628ZM345.114 176.264C344.42 176.264 343.824 176.173 343.324 175.991C342.828 175.809 342.422 175.569 342.108 175.27C341.794 174.97 341.559 174.643 341.403 174.287L342.864 173.684C342.966 173.851 343.102 174.027 343.273 174.213C343.447 174.402 343.682 174.563 343.977 174.696C344.277 174.828 344.661 174.895 345.131 174.895C345.775 174.895 346.307 174.737 346.727 174.423C347.148 174.112 347.358 173.616 347.358 172.934V171.218H347.25C347.148 171.404 347 171.61 346.807 171.838C346.617 172.065 346.356 172.262 346.023 172.429C345.689 172.595 345.256 172.679 344.722 172.679C344.032 172.679 343.411 172.518 342.858 172.196C342.309 171.87 341.873 171.391 341.551 170.758C341.233 170.122 341.074 169.34 341.074 168.412C341.074 167.484 341.231 166.688 341.545 166.025C341.864 165.362 342.299 164.855 342.852 164.503C343.405 164.146 344.032 163.968 344.733 163.968C345.275 163.968 345.712 164.059 346.045 164.241C346.379 164.419 346.638 164.628 346.824 164.866C347.013 165.105 347.159 165.315 347.261 165.497H347.386V164.082H349.051V173.003C349.051 173.753 348.877 174.368 348.528 174.849C348.18 175.33 347.708 175.686 347.114 175.917C346.523 176.148 345.856 176.264 345.114 176.264ZM345.097 171.27C345.585 171.27 345.998 171.156 346.335 170.929C346.676 170.698 346.934 170.368 347.108 169.94C347.286 169.508 347.375 168.991 347.375 168.389C347.375 167.802 347.288 167.285 347.114 166.838C346.939 166.391 346.684 166.042 346.347 165.792C346.009 165.538 345.593 165.412 345.097 165.412C344.585 165.412 344.159 165.544 343.818 165.809C343.477 166.071 343.22 166.427 343.045 166.878C342.875 167.328 342.79 167.832 342.79 168.389C342.79 168.961 342.877 169.463 343.051 169.895C343.225 170.326 343.483 170.663 343.824 170.906C344.169 171.148 344.593 171.27 345.097 171.27ZM355.7 172.809V161.173H359.848C360.753 161.173 361.503 161.338 362.098 161.667C362.693 161.997 363.138 162.448 363.433 163.02C363.729 163.588 363.876 164.228 363.876 164.94C363.876 165.656 363.727 166.3 363.428 166.872C363.132 167.44 362.685 167.891 362.087 168.224C361.492 168.554 360.744 168.718 359.842 168.718H356.99V167.23H359.683C360.255 167.23 360.719 167.131 361.075 166.934C361.431 166.734 361.693 166.461 361.859 166.116C362.026 165.771 362.109 165.379 362.109 164.94C362.109 164.501 362.026 164.11 361.859 163.77C361.693 163.429 361.429 163.162 361.07 162.968C360.714 162.775 360.244 162.679 359.661 162.679H357.456V172.809H355.7ZM369.365 172.985C368.547 172.985 367.833 172.798 367.223 172.423C366.613 172.048 366.14 171.523 365.803 170.849C365.465 170.175 365.297 169.387 365.297 168.485C365.297 167.58 365.465 166.788 365.803 166.11C366.14 165.432 366.613 164.906 367.223 164.531C367.833 164.156 368.547 163.968 369.365 163.968C370.183 163.968 370.897 164.156 371.507 164.531C372.117 164.906 372.59 165.432 372.928 166.11C373.265 166.788 373.433 167.58 373.433 168.485C373.433 169.387 373.265 170.175 372.928 170.849C372.59 171.523 372.117 172.048 371.507 172.423C370.897 172.798 370.183 172.985 369.365 172.985ZM369.371 171.559C369.901 171.559 370.34 171.419 370.689 171.139C371.037 170.859 371.295 170.485 371.462 170.02C371.632 169.554 371.717 169.04 371.717 168.48C371.717 167.923 371.632 167.412 371.462 166.946C371.295 166.476 371.037 166.099 370.689 165.815C370.34 165.531 369.901 165.389 369.371 165.389C368.837 165.389 368.393 165.531 368.041 165.815C367.693 166.099 367.433 166.476 367.263 166.946C367.096 167.412 367.013 167.923 367.013 168.48C367.013 169.04 367.096 169.554 367.263 170.02C367.433 170.485 367.693 170.859 368.041 171.139C368.393 171.419 368.837 171.559 369.371 171.559ZM375.33 172.809V164.082H377.028V172.809H375.33ZM376.188 162.735C375.892 162.735 375.638 162.637 375.426 162.44C375.218 162.239 375.114 162.001 375.114 161.724C375.114 161.444 375.218 161.205 375.426 161.008C375.638 160.807 375.892 160.707 376.188 160.707C376.483 160.707 376.735 160.807 376.943 161.008C377.155 161.205 377.261 161.444 377.261 161.724C377.261 162.001 377.155 162.239 376.943 162.44C376.735 162.637 376.483 162.735 376.188 162.735ZM381.013 167.628V172.809H379.314V164.082H380.945V165.503H381.053C381.253 165.04 381.568 164.669 381.996 164.389C382.428 164.109 382.971 163.968 383.626 163.968C384.221 163.968 384.742 164.093 385.189 164.343C385.636 164.59 385.982 164.957 386.229 165.446C386.475 165.934 386.598 166.538 386.598 167.258V172.809H384.899V167.463C384.899 166.83 384.734 166.336 384.405 165.98C384.075 165.62 383.623 165.44 383.047 165.44C382.653 165.44 382.303 165.525 381.996 165.696C381.693 165.866 381.452 166.116 381.274 166.446C381.1 166.771 381.013 167.165 381.013 167.628ZM392.95 164.082V165.446H388.183V164.082H392.95ZM389.462 161.991H391.161V170.247C391.161 170.576 391.21 170.824 391.308 170.991C391.407 171.154 391.534 171.266 391.689 171.326C391.848 171.383 392.02 171.412 392.206 171.412C392.342 171.412 392.462 171.402 392.564 171.383C392.666 171.364 392.746 171.349 392.803 171.338L393.109 172.741C393.011 172.779 392.871 172.817 392.689 172.855C392.507 172.896 392.28 172.919 392.007 172.923C391.56 172.931 391.143 172.851 390.757 172.684C390.371 172.518 390.058 172.26 389.82 171.912C389.581 171.563 389.462 171.126 389.462 170.599V161.991ZM404.206 166.253V167.73H399.047V166.253H404.206ZM410.841 172.809V161.173H415.102C415.928 161.173 416.612 161.309 417.153 161.582C417.695 161.851 418.1 162.217 418.369 162.679C418.638 163.137 418.773 163.654 418.773 164.23C418.773 164.715 418.684 165.124 418.506 165.457C418.328 165.787 418.089 166.052 417.79 166.253C417.494 166.449 417.169 166.593 416.812 166.684V166.798C417.199 166.817 417.576 166.942 417.943 167.173C418.314 167.4 418.621 167.724 418.864 168.145C419.106 168.565 419.227 169.076 419.227 169.679C419.227 170.273 419.087 170.807 418.807 171.281C418.53 171.751 418.102 172.124 417.523 172.4C416.943 172.673 416.203 172.809 415.301 172.809H410.841ZM412.597 171.304H415.131C415.972 171.304 416.574 171.141 416.938 170.815C417.301 170.489 417.483 170.082 417.483 169.593C417.483 169.226 417.39 168.889 417.205 168.582C417.019 168.275 416.754 168.031 416.409 167.849C416.068 167.667 415.663 167.576 415.193 167.576H412.597V171.304ZM412.597 166.207H414.949C415.343 166.207 415.697 166.131 416.011 165.98C416.33 165.828 416.581 165.616 416.767 165.343C416.956 165.067 417.051 164.741 417.051 164.366C417.051 163.885 416.883 163.482 416.545 163.156C416.208 162.83 415.691 162.667 414.994 162.667H412.597V166.207ZM424.849 172.985C424.031 172.985 423.317 172.798 422.707 172.423C422.098 172.048 421.624 171.523 421.287 170.849C420.95 170.175 420.781 169.387 420.781 168.485C420.781 167.58 420.95 166.788 421.287 166.11C421.624 165.432 422.098 164.906 422.707 164.531C423.317 164.156 424.031 163.968 424.849 163.968C425.668 163.968 426.382 164.156 426.991 164.531C427.601 164.906 428.075 165.432 428.412 166.11C428.749 166.788 428.918 167.58 428.918 168.485C428.918 169.387 428.749 170.175 428.412 170.849C428.075 171.523 427.601 172.048 426.991 172.423C426.382 172.798 425.668 172.985 424.849 172.985ZM424.855 171.559C425.385 171.559 425.825 171.419 426.173 171.139C426.522 170.859 426.779 170.485 426.946 170.02C427.116 169.554 427.202 169.04 427.202 168.48C427.202 167.923 427.116 167.412 426.946 166.946C426.779 166.476 426.522 166.099 426.173 165.815C425.825 165.531 425.385 165.389 424.855 165.389C424.321 165.389 423.878 165.531 423.526 165.815C423.177 166.099 422.918 166.476 422.747 166.946C422.58 167.412 422.497 167.923 422.497 168.48C422.497 169.04 422.58 169.554 422.747 170.02C422.918 170.485 423.177 170.859 423.526 171.139C423.878 171.419 424.321 171.559 424.855 171.559ZM434.473 176.264C433.78 176.264 433.183 176.173 432.683 175.991C432.187 175.809 431.782 175.569 431.467 175.27C431.153 174.97 430.918 174.643 430.763 174.287L432.223 173.684C432.325 173.851 432.462 174.027 432.632 174.213C432.806 174.402 433.041 174.563 433.337 174.696C433.636 174.828 434.02 174.895 434.49 174.895C435.134 174.895 435.666 174.737 436.087 174.423C436.507 174.112 436.717 173.616 436.717 172.934V171.218H436.609C436.507 171.404 436.359 171.61 436.166 171.838C435.977 172.065 435.715 172.262 435.382 172.429C435.049 172.595 434.615 172.679 434.081 172.679C433.392 172.679 432.77 172.518 432.217 172.196C431.668 171.87 431.232 171.391 430.911 170.758C430.592 170.122 430.433 169.34 430.433 168.412C430.433 167.484 430.59 166.688 430.905 166.025C431.223 165.362 431.659 164.855 432.212 164.503C432.765 164.146 433.392 163.968 434.092 163.968C434.634 163.968 435.071 164.059 435.405 164.241C435.738 164.419 435.998 164.628 436.183 164.866C436.373 165.105 436.518 165.315 436.621 165.497H436.746V164.082H438.411V173.003C438.411 173.753 438.236 174.368 437.888 174.849C437.539 175.33 437.068 175.686 436.473 175.917C435.882 176.148 435.215 176.264 434.473 176.264ZM434.456 171.27C434.945 171.27 435.357 171.156 435.695 170.929C436.036 170.698 436.293 170.368 436.467 169.94C436.645 169.508 436.734 168.991 436.734 168.389C436.734 167.802 436.647 167.285 436.473 166.838C436.299 166.391 436.043 166.042 435.706 165.792C435.369 165.538 434.952 165.412 434.456 165.412C433.945 165.412 433.518 165.544 433.178 165.809C432.837 166.071 432.579 166.427 432.405 166.878C432.234 167.328 432.149 167.832 432.149 168.389C432.149 168.961 432.236 169.463 432.411 169.895C432.585 170.326 432.842 170.663 433.183 170.906C433.528 171.148 433.952 171.27 434.456 171.27ZM446.217 169.19V164.082H447.922V172.809H446.251V171.298H446.161C445.96 171.764 445.638 172.152 445.195 172.463C444.755 172.77 444.208 172.923 443.553 172.923C442.992 172.923 442.496 172.8 442.064 172.554C441.636 172.304 441.299 171.934 441.053 171.446C440.81 170.957 440.689 170.353 440.689 169.633V164.082H442.388V169.429C442.388 170.023 442.553 170.497 442.882 170.849C443.212 171.201 443.64 171.378 444.166 171.378C444.484 171.378 444.801 171.298 445.115 171.139C445.433 170.98 445.696 170.739 445.905 170.417C446.117 170.095 446.221 169.686 446.217 169.19ZM450.205 172.809V164.082H451.847V165.468H451.938C452.097 164.999 452.377 164.629 452.778 164.36C453.184 164.088 453.642 163.951 454.153 163.951C454.259 163.951 454.384 163.955 454.528 163.963C454.676 163.97 454.792 163.98 454.875 163.991V165.616C454.807 165.597 454.686 165.576 454.511 165.554C454.337 165.527 454.163 165.514 453.989 165.514C453.587 165.514 453.229 165.599 452.915 165.77C452.604 165.936 452.358 166.169 452.176 166.468C451.994 166.764 451.903 167.101 451.903 167.48V172.809H450.205ZM458.807 173.003C458.254 173.003 457.754 172.9 457.307 172.696C456.86 172.487 456.506 172.186 456.244 171.792C455.987 171.398 455.858 170.915 455.858 170.343C455.858 169.851 455.953 169.446 456.142 169.128C456.331 168.809 456.587 168.557 456.909 168.372C457.231 168.186 457.591 168.046 457.989 167.951C458.386 167.857 458.792 167.785 459.205 167.735C459.727 167.675 460.152 167.626 460.477 167.588C460.803 167.546 461.04 167.48 461.188 167.389C461.335 167.298 461.409 167.15 461.409 166.946V166.906C461.409 166.41 461.269 166.025 460.989 165.753C460.712 165.48 460.299 165.343 459.75 165.343C459.178 165.343 458.727 165.47 458.398 165.724C458.072 165.974 457.847 166.253 457.722 166.559L456.125 166.196C456.314 165.665 456.591 165.237 456.955 164.912C457.322 164.582 457.744 164.343 458.222 164.196C458.699 164.044 459.201 163.968 459.727 163.968C460.076 163.968 460.445 164.01 460.835 164.093C461.229 164.173 461.597 164.321 461.938 164.537C462.282 164.753 462.564 165.061 462.784 165.463C463.004 165.86 463.114 166.378 463.114 167.014V172.809H461.455V171.616H461.386C461.277 171.836 461.112 172.052 460.892 172.264C460.672 172.476 460.39 172.652 460.045 172.792C459.701 172.932 459.288 173.003 458.807 173.003ZM459.176 171.639C459.646 171.639 460.047 171.546 460.381 171.36C460.718 171.175 460.973 170.932 461.148 170.633C461.326 170.33 461.415 170.006 461.415 169.662V168.537C461.354 168.597 461.237 168.654 461.062 168.707C460.892 168.756 460.697 168.8 460.477 168.838C460.258 168.872 460.044 168.904 459.835 168.934C459.627 168.961 459.453 168.984 459.312 169.003C458.983 169.044 458.682 169.114 458.409 169.213C458.14 169.311 457.924 169.453 457.761 169.639C457.602 169.821 457.523 170.063 457.523 170.366C457.523 170.787 457.678 171.105 457.989 171.321C458.299 171.533 458.695 171.639 459.176 171.639Z" fill="#030712" fill-opacity="0.8"/>
<rect x="512" y="138.809" width="232" height="56" rx="12" fill="#030712" fill-opacity="0.05"/>
<path d="M557.278 172.809V161.173H564.574V162.684H559.034V166.23H564.193V167.735H559.034V171.298H564.642V172.809H557.278ZM573.322 166.213L571.783 166.485C571.718 166.288 571.616 166.101 571.476 165.923C571.339 165.745 571.154 165.599 570.919 165.485C570.684 165.372 570.391 165.315 570.038 165.315C569.557 165.315 569.156 165.423 568.834 165.639C568.512 165.851 568.351 166.126 568.351 166.463C568.351 166.754 568.459 166.989 568.675 167.167C568.891 167.345 569.239 167.491 569.72 167.605L571.107 167.923C571.91 168.109 572.508 168.395 572.902 168.781C573.296 169.167 573.493 169.669 573.493 170.287C573.493 170.809 573.341 171.275 573.038 171.684C572.739 172.09 572.321 172.408 571.783 172.639C571.249 172.87 570.629 172.985 569.925 172.985C568.947 172.985 568.15 172.777 567.533 172.36C566.915 171.94 566.536 171.343 566.396 170.571L568.038 170.321C568.141 170.749 568.351 171.073 568.669 171.292C568.987 171.508 569.402 171.616 569.913 171.616C570.47 171.616 570.915 171.501 571.249 171.27C571.582 171.035 571.749 170.749 571.749 170.412C571.749 170.139 571.646 169.91 571.442 169.724C571.241 169.538 570.932 169.398 570.516 169.304L569.038 168.98C568.224 168.794 567.622 168.499 567.232 168.093C566.845 167.688 566.652 167.175 566.652 166.554C566.652 166.038 566.796 165.588 567.084 165.201C567.372 164.815 567.769 164.514 568.277 164.298C568.785 164.078 569.366 163.968 570.021 163.968C570.964 163.968 571.707 164.173 572.249 164.582C572.79 164.987 573.148 165.531 573.322 166.213ZM579.435 164.082V165.446H574.668V164.082H579.435ZM575.946 161.991H577.645V170.247C577.645 170.576 577.694 170.824 577.793 170.991C577.891 171.154 578.018 171.266 578.173 171.326C578.332 171.383 578.505 171.412 578.69 171.412C578.827 171.412 578.946 171.402 579.048 171.383C579.151 171.364 579.23 171.349 579.287 171.338L579.594 172.741C579.495 172.779 579.355 172.817 579.173 172.855C578.991 172.896 578.764 172.919 578.491 172.923C578.045 172.931 577.628 172.851 577.241 172.684C576.855 172.518 576.543 172.26 576.304 171.912C576.065 171.563 575.946 171.126 575.946 170.599V161.991ZM582.433 172.917C582.123 172.917 581.856 172.807 581.632 172.588C581.409 172.364 581.297 172.095 581.297 171.781C581.297 171.47 581.409 171.205 581.632 170.985C581.856 170.762 582.123 170.65 582.433 170.65C582.744 170.65 583.011 170.762 583.234 170.985C583.458 171.205 583.57 171.47 583.57 171.781C583.57 171.989 583.517 172.181 583.411 172.355C583.308 172.525 583.172 172.662 583.001 172.764C582.831 172.866 582.642 172.917 582.433 172.917ZM589.455 162.684V161.173H598.46V162.684H594.83V172.809H593.08V162.684H589.455ZM600.314 172.809V164.082H602.013V172.809H600.314ZM601.172 162.735C600.876 162.735 600.623 162.637 600.411 162.44C600.202 162.239 600.098 162.001 600.098 161.724C600.098 161.444 600.202 161.205 600.411 161.008C600.623 160.807 600.876 160.707 601.172 160.707C601.467 160.707 601.719 160.807 601.928 161.008C602.14 161.205 602.246 161.444 602.246 161.724C602.246 162.001 602.14 162.239 601.928 162.44C601.719 162.637 601.467 162.735 601.172 162.735ZM604.298 172.809V164.082H605.929V165.503H606.037C606.219 165.021 606.516 164.646 606.929 164.378C607.342 164.105 607.836 163.968 608.412 163.968C608.995 163.968 609.484 164.105 609.878 164.378C610.276 164.65 610.569 165.025 610.759 165.503H610.849C611.058 165.037 611.389 164.665 611.844 164.389C612.298 164.109 612.84 163.968 613.469 163.968C614.26 163.968 614.906 164.217 615.406 164.713C615.91 165.209 616.162 165.957 616.162 166.957V172.809H614.463V167.116C614.463 166.525 614.302 166.097 613.98 165.832C613.658 165.567 613.274 165.434 612.827 165.434C612.274 165.434 611.844 165.605 611.537 165.946C611.23 166.283 611.077 166.717 611.077 167.247V172.809H609.384V167.008C609.384 166.535 609.236 166.154 608.94 165.866C608.645 165.578 608.26 165.434 607.787 165.434C607.465 165.434 607.168 165.52 606.895 165.69C606.626 165.857 606.408 166.09 606.241 166.389C606.079 166.688 605.997 167.035 605.997 167.429V172.809H604.298ZM622.2 172.985C621.34 172.985 620.6 172.802 619.979 172.434C619.361 172.063 618.884 171.542 618.547 170.872C618.214 170.198 618.047 169.408 618.047 168.503C618.047 167.609 618.214 166.821 618.547 166.139C618.884 165.457 619.354 164.925 619.956 164.542C620.562 164.16 621.27 163.968 622.081 163.968C622.573 163.968 623.051 164.05 623.513 164.213C623.975 164.376 624.39 164.631 624.757 164.98C625.125 165.328 625.414 165.781 625.626 166.338C625.839 166.891 625.945 167.563 625.945 168.355V168.957H619.007V167.684H624.28C624.28 167.237 624.189 166.842 624.007 166.497C623.825 166.148 623.57 165.874 623.24 165.673C622.914 165.472 622.532 165.372 622.092 165.372C621.615 165.372 621.198 165.489 620.842 165.724C620.49 165.955 620.217 166.258 620.024 166.633C619.835 167.004 619.74 167.408 619.74 167.843V168.838C619.74 169.421 619.842 169.917 620.047 170.326C620.255 170.735 620.545 171.048 620.916 171.264C621.287 171.476 621.721 171.582 622.217 171.582C622.539 171.582 622.833 171.537 623.098 171.446C623.363 171.351 623.592 171.211 623.786 171.025C623.979 170.84 624.126 170.61 624.229 170.338L625.837 170.628C625.708 171.101 625.477 171.516 625.143 171.872C624.814 172.224 624.399 172.499 623.899 172.696C623.403 172.889 622.837 172.985 622.2 172.985ZM637.206 166.253V167.73H632.047V166.253H637.206ZM648.097 161.173V172.809H646.335V162.934H646.267L643.483 164.753V163.071L646.386 161.173H648.097ZM655.659 161.173V172.809H653.898V162.934H653.83L651.045 164.753V163.071L653.949 161.173H655.659ZM663.2 172.809V161.173H664.956V166.23H670.757V161.173H672.518V172.809H670.757V167.735H664.956V172.809H663.2ZM678.615 172.985C677.797 172.985 677.083 172.798 676.473 172.423C675.863 172.048 675.39 171.523 675.053 170.849C674.715 170.175 674.547 169.387 674.547 168.485C674.547 167.58 674.715 166.788 675.053 166.11C675.39 165.432 675.863 164.906 676.473 164.531C677.083 164.156 677.797 163.968 678.615 163.968C679.433 163.968 680.147 164.156 680.757 164.531C681.367 164.906 681.84 165.432 682.178 166.11C682.515 166.788 682.683 167.58 682.683 168.485C682.683 169.387 682.515 170.175 682.178 170.849C681.84 171.523 681.367 172.048 680.757 172.423C680.147 172.798 679.433 172.985 678.615 172.985ZM678.621 171.559C679.151 171.559 679.59 171.419 679.939 171.139C680.287 170.859 680.545 170.485 680.712 170.02C680.882 169.554 680.967 169.04 680.967 168.48C680.967 167.923 680.882 167.412 680.712 166.946C680.545 166.476 680.287 166.099 679.939 165.815C679.59 165.531 679.151 165.389 678.621 165.389C678.087 165.389 677.643 165.531 677.291 165.815C676.943 166.099 676.683 166.476 676.513 166.946C676.346 167.412 676.263 167.923 676.263 168.48C676.263 169.04 676.346 169.554 676.513 170.02C676.683 170.485 676.943 170.859 677.291 171.139C677.643 171.419 678.087 171.559 678.621 171.559ZM690.108 169.19V164.082H691.812V172.809H690.142V171.298H690.051C689.85 171.764 689.528 172.152 689.085 172.463C688.646 172.77 688.098 172.923 687.443 172.923C686.883 172.923 686.386 172.8 685.955 172.554C685.527 172.304 685.189 171.934 684.943 171.446C684.701 170.957 684.58 170.353 684.58 169.633V164.082H686.278V169.429C686.278 170.023 686.443 170.497 686.773 170.849C687.102 171.201 687.53 171.378 688.057 171.378C688.375 171.378 688.691 171.298 689.006 171.139C689.324 170.98 689.587 170.739 689.795 170.417C690.008 170.095 690.112 169.686 690.108 169.19ZM694.095 172.809V164.082H695.737V165.468H695.828C695.987 164.999 696.268 164.629 696.669 164.36C697.074 164.088 697.533 163.951 698.044 163.951C698.15 163.951 698.275 163.955 698.419 163.963C698.567 163.97 698.682 163.98 698.766 163.991V165.616C698.697 165.597 698.576 165.576 698.402 165.554C698.228 165.527 698.054 165.514 697.879 165.514C697.478 165.514 697.12 165.599 696.805 165.77C696.495 165.936 696.249 166.169 696.067 166.468C695.885 166.764 695.794 167.101 695.794 167.48V172.809H694.095Z" fill="#030712" fill-opacity="0.8"/>
</svg>
